<svg width="846" height="1035" viewBox="0 0 846 1035" fill="none" xmlns="http://www.w3.org/2000/svg">
<path d="M386.775 24.8223L158 156.906V252.241L157.564 252.493V539.999H32V180L343.769 0L343.775 0.0117188L343.782 0L386.775 24.8223ZM655.564 275.343V539.999H530V252.501L466.775 215.998L509.775 191.173L655.564 275.343ZM655.552 180H655.564V229.156L509.775 144.985L426.775 192.904L343.775 144.984L198 229.147V180L426.775 47.916L655.552 180Z" fill="#1261A6"/>
<path d="M821.552 180H821.564V540H696V252.502L509.775 144.985L323.564 252.494V540H198V180L509.769 0L509.775 0.0117188L509.782 0L821.552 180Z" fill="#A1BF36"/>
<path d="M318.231 897.511C317.708 896.988 317.28 852.498 317.28 798.645C317.28 721.747 317.631 700.505 318.917 699.68C319.817 699.102 334.273 698.422 351.041 698.169C374.35 697.816 382.002 698.1 383.537 699.374C385.258 700.802 385.485 705.384 385.131 731.47C384.904 748.207 385.086 762.271 385.54 762.725C385.992 763.178 399.251 763.658 415.003 763.792C445.901 764.054 453.187 762.937 462.86 756.457C468.084 752.957 475.144 742.82 476.992 736.164C478.811 729.618 478.592 716.649 476.568 710.99C473.974 703.735 466.851 694.239 461.557 690.977C450.971 684.455 450.178 684.381 382.11 683.618L317.958 682.898L317.292 679.094C316.925 677.002 316.797 664.146 317.008 650.526L317.39 625.762L390.992 626.287C462.037 626.793 464.95 626.912 474.808 629.695C507.628 638.961 527.715 658.06 538.961 690.691C542.821 701.89 543.046 703.619 543.061 722.182C543.071 737.104 542.512 743.852 540.727 750.26C533.059 777.793 516.682 797.815 492.542 809.17C472.253 818.714 456.927 821.047 414.542 821.047H385.372L385.332 825.303C385.308 827.644 385.328 844.449 385.372 862.649C385.436 888.455 385.084 895.854 383.777 896.265C380.532 897.284 319.17 898.45 318.231 897.511Z" fill="#A1BF36"/>
<path d="M241.657 897.301L209.902 896.951V843.345V789.74L205.027 788.825C199.749 787.835 100.137 789.324 98.3645 790.42C97.7724 790.786 97.288 814.915 97.288 844.041V896.998H63.1801H29.0723L29.2811 761.467L29.49 625.938H63.3888C94.7917 625.938 97.2893 626.106 97.3107 628.229C97.3255 629.489 97.4705 652.323 97.6378 678.971L97.9422 727.421L153.922 727.763L209.902 728.104V677.021V625.938H243.293H276.685V713.458C276.685 761.594 277.074 822.217 277.549 848.175C278.384 893.805 278.33 895.41 275.912 896.512C274.536 897.139 259.122 897.494 241.657 897.301Z" fill="#1261A6"/>
<path d="M672.8 901.363C671.36 901.053 665.172 899.852 659.051 898.694C628.834 892.976 601.474 875.949 582.672 851.161C579.667 847.199 576.767 843.762 576.227 843.522C575.686 843.282 575.245 842.571 575.245 841.943C575.245 841.314 573.401 837.681 571.148 833.868C565.436 824.201 558.448 804.365 555.559 789.616C553.128 777.204 552.771 750.034 554.888 738.546C564.748 685.049 600.27 644.056 649.546 629.307C694.158 615.954 740.01 621.013 778.867 643.576C789.877 649.969 804.368 662.762 804.391 666.11C804.396 666.962 800.129 672.649 794.908 678.747C789.686 684.846 782.173 693.79 778.212 698.624C769.561 709.182 767.825 711.047 766.655 711.047C766.163 711.047 762.19 708.123 757.826 704.549C741.18 690.917 720.283 683.549 698.265 683.549C675.664 683.549 659.455 690.069 643.802 705.456C638.505 710.663 634.171 715.548 634.171 716.312C634.171 717.076 633.018 719.297 631.608 721.249C630.199 723.2 627.484 729.51 625.574 735.27C615.728 764.974 622.835 799.354 642.963 819.38C652.645 829.013 659.06 833.273 670.195 837.464C676.611 839.879 695.955 843.12 699.644 842.398C700.004 842.328 704.424 841.906 709.465 841.46C719.061 840.613 732.732 836.662 739.825 832.687C747.684 828.283 754.026 824.017 755.681 822.023C757.546 819.776 758.858 807.586 757.722 803.06L756.977 800.091L726.019 800.071C708.992 800.062 694.246 799.535 693.25 798.904C691.802 797.987 691.45 792.415 691.496 771.098L691.554 744.439H757.471H823.389L823.738 820.716L824.086 896.992L821.119 897.042C805.912 897.294 764.457 896.769 764.006 896.318C763.689 896 763.148 892.82 762.806 889.251L762.182 882.761L757.43 885.887C749.516 891.094 729.403 898.137 716.449 900.238C705.276 902.05 679.128 902.724 672.8 901.363Z" fill="#A1BF36"/>
<path d="M686.206 1030.99C684.047 1030.4 683.921 1027.19 684.242 981.025L684.585 931.691L692.785 931.301L700.985 930.91L700.642 981.06L700.299 1031.21L694.406 1031.42C691.165 1031.53 687.475 1031.34 686.206 1030.99Z" fill="#1261A6"/>
<path d="M633.627 1030.74C633.2 1030.05 632.542 1011.02 632.163 988.458L631.474 947.434L624.263 947.419C620.165 947.409 616.641 946.74 616.1 945.865C615.577 945.018 615.363 941.63 615.625 938.335C616.06 932.87 616.405 932.34 619.571 932.277C627.781 932.115 661.271 932.05 663.961 932.191C666.64 932.331 666.907 932.998 666.907 939.548V946.75H658.396H649.884L649.611 967.374C649.461 978.717 649.296 997.721 649.243 1009.6L649.148 1031.21L641.775 1031.6C637.719 1031.81 634.053 1031.43 633.627 1030.74Z" fill="#1261A6"/>
<path d="M554.742 1029.84C554.314 1028.73 555.258 1020.92 556.84 1012.49C563.802 975.389 564.958 969.374 566.076 964.431C566.727 961.55 568.291 953.301 569.551 946.099C570.811 938.897 572.323 932.668 572.912 932.257C573.846 931.606 577.183 931.595 589.206 932.205C591.494 932.322 592.204 933.418 592.904 937.914C593.381 940.975 594.577 947.015 595.562 951.336C599.289 967.695 609.757 1020.97 610.304 1026.37L610.875 1032L602.589 1031.61L594.303 1031.21L592.683 1021.51C591.792 1016.17 590.517 1011.26 589.85 1010.59C587.828 1008.57 574.117 1010.87 573.396 1013.35C572.842 1015.26 570.007 1030.4 570.007 1031.45C570.007 1031.68 566.747 1031.87 562.764 1031.87C557.432 1031.87 555.315 1031.33 554.742 1029.84ZM586.517 985.287C585.481 980.298 584.216 972.784 583.704 968.588C583.193 964.393 582.319 961.446 581.761 962.041C581.204 962.635 580.077 968.425 579.258 974.907C578.439 981.389 577.437 988.568 577.032 990.861C576.318 994.901 576.451 995.043 581.335 995.456C584.107 995.69 586.831 995.539 587.388 995.12C587.945 994.7 587.553 990.275 586.517 985.287Z" fill="#1261A6"/>
<path d="M494.584 1030.35C493.253 1028.2 494.658 932.351 496.021 932.279C518.266 931.107 533.025 932.341 537.725 935.768C543.721 940.138 546.793 948.635 546.904 961.156C547.079 980.792 539.829 989.029 520.859 990.749L510.732 991.666L511.636 1008.29C512.133 1017.44 512.144 1026.5 511.661 1028.43C510.821 1031.78 510.423 1031.93 503.03 1031.7C498.767 1031.58 494.965 1030.97 494.584 1030.35ZM526.794 972.941C528.937 970.797 529.413 968.576 529.413 960.704C529.413 949.717 528.015 947.564 519.905 946.059C512.078 944.607 511.08 946.307 511.08 961.098C511.08 968.092 511.473 974.207 511.953 974.687C513.992 976.725 524.212 975.523 526.794 972.941Z" fill="#1261A6"/>
<path d="M214.159 1031L209.903 1030.39V981.451V932.509L216.003 931.594C224.868 930.265 243.105 931.853 248.137 934.393C261.328 941.051 262.718 946.134 262.085 985.382C261.643 1012.84 261.476 1014.44 258.523 1019.6C253.578 1028.24 247.334 1030.95 231.583 1031.31C224.34 1031.47 216.499 1031.33 214.159 1031ZM237.023 1016.17C238.616 1016.16 241.12 1014.86 242.589 1013.29C245.099 1010.59 245.258 1008.79 245.258 983.106C245.258 948.841 244.5 946.752 232.057 946.752H226.926V956.363C226.926 961.649 227.315 977.603 227.791 991.816C228.641 1017.19 228.706 1017.65 231.392 1016.92C232.897 1016.52 235.431 1016.18 237.023 1016.17Z" fill="#555555"/>
<path d="M147.599 1030.67C147.296 1030.37 147.048 1008.12 147.048 981.236C147.048 933.235 147.098 932.348 149.667 932.31C151.108 932.291 160.978 932.252 171.601 932.228L190.916 932.184L191.308 939.468L191.701 946.752H177.886H164.071V959.139V971.526L174.875 971.907L185.678 972.287V979.489V986.691L174.875 987.071L164.071 987.452V1001.8V1016.15H177.821H191.57L191.571 1023.68L191.572 1031.21H169.861C157.919 1031.21 147.901 1030.97 147.599 1030.67Z" fill="#555555"/>
<path d="M73.6239 1030.5C72.9904 1030.11 72.3105 1007.86 72.113 981.069C71.7878 937.001 71.9551 932.348 73.8626 932.348C75.0224 932.349 78.7053 931.974 82.0468 931.516L88.1221 930.684V951.158V971.633H98.0088H107.895L107.502 952.02L107.11 932.407L112.521 931.598C123.709 929.924 122.741 925.574 123.478 980.816C123.838 1007.81 124.006 1030.13 123.851 1030.4C123.696 1030.68 120.161 1030.97 115.994 1031.06L108.419 1031.21L108.06 1009.28L107.701 987.347H97.912H88.1226V1008.83V1030.31L81.4494 1030.76C77.7791 1031.01 74.2573 1030.89 73.6239 1030.5Z" fill="#555555"/>
<path d="M808.985 1031.01C799.409 1025.97 796.012 1020.41 794.618 1007.5L793.896 1000.81L801.351 1000.04C805.452 999.619 809.289 999.57 809.878 999.934C810.467 1000.3 810.949 1003.24 810.949 1006.47C810.949 1017.16 820.753 1022.72 826.567 1015.32C832.359 1007.96 829.431 1001.63 812.462 984.809C798.059 970.534 794.766 964.222 795.446 952.189C795.815 945.677 796.721 942.326 798.972 939.165C803.081 933.396 810.689 929.73 818.558 929.73C831.698 929.73 839.845 935.125 843.062 945.956C844.735 951.593 845.662 959.66 844.668 959.941C844.487 959.992 841.505 960.328 838.04 960.689C830.236 961.502 827.972 959.822 827.972 953.215C827.972 944.774 819.456 941.14 813.796 947.165C808.058 953.273 811.101 959.862 826.606 974.907C836.504 984.512 841.68 991.93 844.5 1000.55C848.689 1013.36 843.898 1025.59 832.707 1030.67C826.073 1033.69 814.388 1033.85 808.985 1031.01Z" fill="#1261A6"/>
<path d="M737.619 1030.98C730.885 1028.07 725 1021.01 723.33 1013.83C722.537 1010.43 721.765 995.565 721.614 980.801C721.308 950.782 722.544 944.069 729.729 936.719C739.293 926.937 761.877 927.762 770.082 938.193C775.497 945.076 776.15 949.832 776.2 982.765C776.245 1012.8 776.119 1014.43 773.331 1019.65C767.022 1031.45 750.682 1036.63 737.619 1030.98ZM755.374 1015.61C757.72 1013.9 757.968 1011.51 758.599 984.51C759.366 951.742 758.479 946.129 752.294 944.577C748.096 943.523 742.711 946.388 740.73 950.73C739.713 952.959 739.463 963.023 739.922 983.267C740.519 1009.61 740.834 1012.82 743.031 1015.02C745.932 1017.92 751.822 1018.2 755.374 1015.61Z" fill="#1261A6"/>
<path d="M294.364 1030.71C291.483 1029.39 288.11 1027.17 286.869 1025.77C283.612 1022.1 280.614 1012.78 280.614 1006.32C280.614 1000.15 282.046 999.184 291.265 999.149C296.451 999.13 297.584 1000.92 297.619 1009.19C297.634 1012.28 298.617 1014.06 301.441 1016.07C306.215 1019.46 308.192 1019.46 312.52 1016.06C316.606 1012.85 317.148 1006.7 313.784 1001.72C312.581 999.935 305.918 992.585 298.976 985.383C284.407 970.268 281.905 966.065 281.047 955.265C279.838 940.043 289.466 929.73 304.885 929.73C320.783 929.73 331.09 940.213 330.126 955.401L329.719 961.812L322.525 961.75L315.33 961.688L314.403 955.203C312.898 944.664 305.879 941.013 299.461 947.43C296.127 950.764 296.101 951.531 299.056 959.433C299.644 961.005 306.03 968.509 313.248 976.109C329.345 993.056 331.684 997.277 331.684 1009.38C331.684 1018.51 329.943 1022.58 323.858 1027.64C316.892 1033.43 303.348 1034.84 294.364 1030.71Z" fill="#555555"/>
<path d="M14.0076 1030.68C6.87965 1027.44 3.14815 1021.86 1.57384 1012.09C0.860582 1007.66 0.15459 1003.39 0.00497114 1002.61C-0.14583 1001.82 3.15261 1000.66 7.40728 999.99C16.3604 998.588 17.3596 999.377 17.3907 1007.87C17.4056 1012.21 18.126 1013.91 20.861 1016.06C25.3335 1019.57 28.0458 1019.48 32.1579 1015.67C34.9529 1013.08 35.3935 1011.74 34.8394 1007.49C34.0379 1001.34 30.5523 996.482 17.1301 982.803C3.80199 969.22 1.26414 964.023 1.89875 951.611C2.3166 943.439 2.8854 941.603 6.12112 937.982C10.2842 933.323 19.2495 929.727 26.7017 929.727C32.4487 929.727 41.99 933.556 45.2025 937.151C48.3361 940.659 51.457 950.041 51.457 955.954V960.901L44.815 961.355C36.4078 961.929 34.4338 960.792 34.4338 955.373C34.4338 950.029 30.0378 944.131 26.0555 944.131C22.2352 944.131 17.4083 949.301 17.4194 953.381C17.4293 957.698 20.0526 961.343 33.2603 975.407C47.0522 990.094 51.7875 998.25 51.9219 1007.55C51.9779 1011.42 51.0539 1016.32 49.7479 1019.07C43.9931 1031.2 27.1777 1036.66 14.0076 1030.68Z" fill="#555555"/>
<path d="M395.423 1031.98C389.827 1029.13 385.785 1024.47 382.305 1016.85C377.574 1006.49 381.865 989.702 391.679 980.17L396.405 975.58L392.586 968.04C382.527 948.181 390.429 929.426 408.855 929.426C416.639 929.426 422.744 932.601 426.943 938.831C432.934 947.721 429.604 963.472 419.843 972.412C414.479 977.325 414.525 977.792 421.458 988.775C425.454 995.105 427.222 994.05 427.255 985.315C427.279 978.356 429.033 976.869 437.205 976.869C442.68 976.869 444.113 977.332 444.619 979.264C444.963 980.581 443.036 988.389 440.336 996.614L435.427 1011.57L440.534 1016.87C446.167 1022.73 448.987 1029.69 446.478 1031.55C442.046 1034.85 431.276 1032.84 427.679 1028.05C426.385 1026.33 425.714 1026.26 423.75 1027.64C413.812 1034.62 403.658 1036.18 395.423 1031.98ZM412.936 1016.77C417.654 1014.33 417.781 1012.28 413.525 1007.23C411.725 1005.09 410.252 1002.97 410.252 1002.53C410.252 1002.09 408.49 999.295 406.338 996.323L402.424 990.921L399.819 996.662C392.908 1011.89 400.339 1023.29 412.936 1016.77ZM410.995 960.599C418.483 953.111 414.412 939.399 406.373 945.031C403.776 946.849 403.501 947.864 404.208 953.02C404.926 958.262 406.854 962.465 408.541 962.465C408.864 962.465 409.969 961.625 410.995 960.599Z" fill="#A1BF36"/>
</svg>
