<svg width="1870" height="541" viewBox="0 0 1870 541" fill="none" xmlns="http://www.w3.org/2000/svg">
<path d="M354.775 24.8223L126 156.906V252.241L125.564 252.493V539.999H0V180L311.769 0L311.775 0.0117188L311.782 0L354.775 24.8223ZM623.564 275.343V539.999H498V252.501L434.775 215.998L477.775 191.173L623.564 275.343ZM623.552 180H623.564V229.156L477.775 144.985L394.775 192.904L311.775 144.984L166 229.147V180L394.775 47.916L623.552 180Z" fill="#1261A6"/>
<path d="M789.552 180H789.564V540H664V252.502L477.775 144.985L291.564 252.494V540H166V180L477.769 0L477.775 0.0117188L477.782 0L789.552 180Z" fill="#A1BF36"/>
<path d="M1279.15 387.34C1278.57 386.754 1278.09 336.963 1278.09 276.693C1278.09 190.631 1278.48 166.858 1279.92 165.934C1280.93 165.287 1297.11 164.526 1315.87 164.242C1341.96 163.848 1350.52 164.165 1352.24 165.591C1354.17 167.19 1354.42 172.317 1354.03 201.513C1353.77 220.244 1353.98 235.984 1354.48 236.491C1354.99 236.999 1369.83 237.536 1387.46 237.685C1422.04 237.979 1430.19 236.729 1441.02 229.477C1446.86 225.56 1454.77 214.214 1456.83 206.766C1458.87 199.439 1458.62 184.925 1456.36 178.592C1453.46 170.473 1445.48 159.844 1439.56 156.194C1427.71 148.894 1426.82 148.812 1350.65 147.958L1278.85 147.152L1278.1 142.895C1277.69 140.554 1277.55 126.166 1277.78 110.922L1278.21 83.207L1360.59 83.7944C1440.1 84.3615 1443.36 84.4942 1454.39 87.609C1491.12 97.9794 1513.6 119.354 1526.19 155.874C1530.51 168.407 1530.76 170.342 1530.78 191.118C1530.79 207.818 1530.16 215.369 1528.16 222.542C1519.58 253.355 1501.25 275.763 1474.24 288.471C1451.53 299.152 1434.38 301.764 1386.94 301.764H1354.3L1354.25 306.527C1354.22 309.147 1354.25 327.955 1354.3 348.323C1354.37 377.204 1353.97 385.486 1352.51 385.945C1348.88 387.086 1280.2 388.391 1279.15 387.34Z" fill="#A1BF36"/>
<path d="M1193.45 387.108L1157.92 386.715V326.722V266.728L1152.46 265.705C1146.55 264.597 1035.07 266.263 1033.09 267.489C1032.42 267.899 1031.88 294.904 1031.88 327.501V386.768H993.709H955.537L955.771 235.087L956.005 83.4062H993.943C1029.09 83.4062 1031.88 83.5951 1031.91 85.9709C1031.92 87.3814 1032.09 112.936 1032.27 142.76L1032.61 196.984L1095.26 197.366L1157.92 197.748V140.577V83.4064H1195.29H1232.66V181.356C1232.66 235.228 1233.09 303.075 1233.62 332.127C1234.56 383.195 1234.5 384.991 1231.79 386.224C1230.25 386.926 1213 387.323 1193.45 387.108Z" fill="#1261A6"/>
<path d="M1675.98 391.654C1674.36 391.307 1667.44 389.963 1660.59 388.666C1626.77 382.267 1596.15 363.211 1575.11 335.469C1571.74 331.036 1568.5 327.189 1567.89 326.92C1567.29 326.651 1566.79 325.856 1566.79 325.153C1566.79 324.449 1564.73 320.382 1562.21 316.115C1555.82 305.296 1548 283.096 1544.76 266.59C1542.04 252.7 1541.64 222.292 1544.01 209.435C1555.05 149.563 1594.8 103.684 1649.95 87.1775C1699.88 72.2334 1751.19 77.8955 1794.68 103.147C1807 110.302 1823.22 124.62 1823.25 128.367C1823.25 129.32 1818.48 135.684 1812.63 142.509C1806.79 149.335 1798.38 159.345 1793.95 164.755C1784.27 176.571 1782.32 178.659 1781.01 178.659C1780.46 178.659 1776.02 175.386 1771.13 171.386C1752.5 156.129 1729.12 147.883 1704.47 147.883C1679.18 147.883 1661.04 155.18 1643.52 172.401C1637.59 178.228 1632.74 183.696 1632.74 184.551C1632.74 185.406 1631.45 187.892 1629.87 190.076C1628.3 192.26 1625.26 199.321 1623.12 205.768C1612.1 239.011 1620.06 277.489 1642.58 299.901C1653.42 310.682 1660.6 315.449 1673.06 320.14C1680.24 322.843 1701.89 326.47 1706.02 325.662C1706.42 325.584 1711.37 325.111 1717.01 324.613C1727.75 323.664 1743.05 319.243 1750.99 314.794C1759.78 309.864 1766.88 305.091 1768.73 302.859C1770.82 300.345 1772.29 286.701 1771.02 281.636L1770.18 278.314L1735.54 278.292C1716.48 278.281 1699.98 277.691 1698.86 276.985C1697.24 275.959 1696.85 269.723 1696.9 245.866L1696.96 216.03H1770.74H1844.51L1844.9 301.396L1845.29 386.762L1841.97 386.817C1824.95 387.1 1778.55 386.512 1778.05 386.007C1777.69 385.652 1777.09 382.093 1776.71 378.098L1776.01 370.835L1770.69 374.334C1761.83 380.161 1739.32 388.043 1724.83 390.394C1712.32 392.422 1683.06 393.176 1675.98 391.654Z" fill="#A1BF36"/>
<path d="M1690.98 536.728C1688.56 536.067 1688.42 532.477 1688.78 480.809L1689.16 425.597L1698.34 425.16L1707.52 424.723L1707.13 480.849L1706.75 536.975L1700.16 537.204C1696.53 537.331 1692.4 537.117 1690.98 536.728Z" fill="#1261A6"/>
<path d="M1632.13 536.445C1631.66 535.673 1630.92 514.381 1630.5 489.129L1629.73 443.217L1621.65 443.2C1617.07 443.189 1613.12 442.44 1612.52 441.461C1611.93 440.513 1611.69 436.721 1611.99 433.034C1612.47 426.917 1612.86 426.324 1616.4 426.253C1625.59 426.072 1663.07 425.999 1666.08 426.157C1669.08 426.314 1669.38 427.06 1669.38 434.39V442.451H1659.85H1650.33L1650.02 465.533C1649.86 478.228 1649.67 499.496 1649.61 512.795L1649.5 536.976L1641.25 537.412C1636.71 537.652 1632.61 537.217 1632.13 536.445Z" fill="#1261A6"/>
<path d="M1543.85 535.443C1543.37 534.195 1544.43 525.457 1546.2 516.025C1553.99 474.502 1555.28 467.771 1556.53 462.239C1557.26 459.015 1559.01 449.782 1560.42 441.722C1561.83 433.661 1563.52 426.69 1564.18 426.231C1565.23 425.502 1568.96 425.49 1582.42 426.173C1584.98 426.303 1585.77 427.53 1586.56 432.562C1587.09 435.988 1588.43 442.747 1589.53 447.584C1593.7 465.891 1605.42 525.52 1606.03 531.558L1606.67 537.861L1597.4 537.42L1588.12 536.98L1586.31 526.12C1585.31 520.147 1583.89 514.65 1583.14 513.903C1580.88 511.641 1565.53 514.215 1564.72 516.992C1564.1 519.125 1560.93 536.071 1560.93 537.249C1560.93 537.504 1557.28 537.713 1552.83 537.713C1546.86 537.713 1544.49 537.114 1543.85 535.443ZM1579.41 485.579C1578.25 479.996 1576.83 471.587 1576.26 466.891C1575.69 462.196 1574.71 458.898 1574.09 459.564C1573.46 460.229 1572.2 466.709 1571.29 473.963C1570.37 481.217 1569.25 489.252 1568.79 491.818C1567.99 496.34 1568.14 496.499 1573.61 496.961C1576.71 497.223 1579.76 497.053 1580.38 496.584C1581.01 496.115 1580.57 491.162 1579.41 485.579Z" fill="#1261A6"/>
<path d="M1476.52 536.01C1475.03 533.601 1476.61 426.333 1478.13 426.253C1503.03 424.94 1519.54 426.322 1524.8 430.157C1531.51 435.048 1534.95 444.557 1535.08 458.57C1535.27 480.546 1527.16 489.766 1505.93 491.689L1494.6 492.716L1495.61 511.324C1496.16 521.559 1496.17 531.7 1495.63 533.859C1494.69 537.606 1494.25 537.775 1485.97 537.526C1481.2 537.383 1476.95 536.701 1476.52 536.01ZM1512.57 471.76C1514.97 469.361 1515.5 466.875 1515.5 458.064C1515.5 445.768 1513.94 443.359 1504.86 441.674C1496.1 440.049 1494.98 441.952 1494.98 458.505C1494.98 466.332 1495.42 473.176 1495.96 473.714C1498.24 475.995 1509.68 474.649 1512.57 471.76Z" fill="#1261A6"/>
<path d="M1162.68 536.738L1157.92 536.059V481.285V426.511L1164.74 425.487C1174.66 423.999 1195.08 425.777 1200.71 428.62C1215.47 436.072 1217.02 441.76 1216.32 485.685C1215.82 516.412 1215.63 518.21 1212.33 523.982C1206.8 533.649 1199.81 536.686 1182.18 537.084C1174.07 537.267 1165.3 537.112 1162.68 536.738ZM1188.27 520.144C1190.05 520.133 1192.85 518.681 1194.5 516.917C1197.31 513.902 1197.48 511.878 1197.48 483.137C1197.48 444.79 1196.64 442.452 1182.71 442.452H1176.97V453.208C1176.97 459.123 1177.4 476.978 1177.94 492.886C1178.89 521.287 1178.96 521.793 1181.97 520.986C1183.65 520.534 1186.49 520.155 1188.27 520.144Z" fill="#767676"/>
<path d="M1088.19 536.365C1087.85 536.029 1087.57 511.134 1087.57 481.042C1087.57 427.321 1087.63 426.329 1090.5 426.286C1092.12 426.264 1103.16 426.221 1115.05 426.194L1136.67 426.145L1137.11 434.297L1137.55 442.449H1122.08H1106.62V456.312V470.176L1118.71 470.601L1130.8 471.027V479.087V487.148L1118.71 487.573L1106.62 487.999V504.06V520.122H1122.01H1137.4L1137.4 528.548L1137.4 536.975H1113.1C1099.74 536.975 1088.53 536.701 1088.19 536.365Z" fill="#767676"/>
<path d="M1005.4 536.178C1004.69 535.739 1003.93 510.844 1003.71 480.854C1003.34 431.535 1003.53 426.328 1005.66 426.328C1006.96 426.328 1011.08 425.909 1014.82 425.397L1021.62 424.465V447.379V470.294H1032.69H1043.75L1043.31 448.344L1042.87 426.394L1048.93 425.488C1061.45 423.615 1060.37 418.746 1061.19 480.571C1061.6 510.787 1061.78 535.761 1061.61 536.069C1061.44 536.376 1057.48 536.706 1052.82 536.802L1044.34 536.975L1043.94 512.428L1043.54 487.88H1032.58H1021.62V511.92V535.959L1014.16 536.467C1010.05 536.747 1006.11 536.617 1005.4 536.178Z" fill="#767676"/>
<path d="M1828.39 536.747C1817.67 531.107 1813.87 524.887 1812.31 510.441L1811.5 502.954L1819.85 502.092C1824.44 501.619 1828.73 501.565 1829.39 501.972C1830.05 502.38 1830.59 505.672 1830.59 509.288C1830.59 521.249 1841.56 527.468 1848.07 519.196C1854.55 510.956 1851.27 503.867 1832.28 485.044C1816.16 469.068 1812.48 462.005 1813.24 448.537C1813.65 441.249 1814.66 437.499 1817.18 433.961C1821.78 427.504 1830.3 423.402 1839.1 423.402C1853.81 423.402 1862.93 429.44 1866.53 441.562C1868.4 447.87 1869.44 456.899 1868.32 457.212C1868.12 457.269 1864.79 457.646 1860.91 458.05C1852.17 458.96 1849.64 457.08 1849.64 449.685C1849.64 440.239 1840.11 436.172 1833.77 442.915C1827.35 449.75 1830.76 457.125 1848.11 473.963C1859.19 484.711 1864.98 493.014 1868.14 502.663C1872.82 516.994 1867.46 530.686 1854.94 536.374C1847.51 539.746 1834.44 539.929 1828.39 536.747Z" fill="#1261A6"/>
<path d="M1748.52 536.722C1740.98 533.463 1734.4 525.559 1732.53 517.53C1731.64 513.72 1730.78 497.083 1730.61 480.559C1730.26 446.964 1731.65 439.451 1739.69 431.225C1750.39 420.277 1775.67 421.2 1784.85 432.874C1790.91 440.578 1791.64 445.9 1791.7 482.758C1791.75 516.377 1791.61 518.2 1788.49 524.035C1781.43 537.241 1763.14 543.046 1748.52 536.722ZM1768.39 519.516C1771.02 517.599 1771.29 514.926 1772 484.711C1772.86 448.038 1771.87 441.756 1764.94 440.019C1760.24 438.84 1754.22 442.046 1752 446.906C1750.86 449.4 1750.58 460.663 1751.1 483.319C1751.77 512.799 1752.12 516.4 1754.58 518.858C1757.82 522.105 1764.41 522.419 1768.39 519.516Z" fill="#1261A6"/>
<path d="M1252.44 536.421C1249.22 534.94 1245.44 532.449 1244.05 530.884C1240.41 526.78 1237.05 516.349 1237.05 509.121C1237.05 502.211 1238.66 501.132 1248.97 501.094C1254.78 501.071 1256.05 503.075 1256.09 512.331C1256.1 515.793 1257.2 517.776 1260.36 520.025C1265.71 523.83 1267.92 523.829 1272.76 520.02C1277.34 516.423 1277.94 509.541 1274.18 503.965C1272.83 501.972 1265.37 493.747 1257.6 485.687C1241.3 468.771 1238.5 464.066 1237.54 451.98C1236.19 434.944 1246.96 423.402 1264.22 423.402C1282.01 423.402 1293.55 435.134 1292.47 452.132L1292.01 459.307L1283.96 459.238L1275.91 459.168L1274.87 451.91C1273.19 440.115 1265.33 436.029 1258.15 443.212C1254.42 446.943 1254.39 447.801 1257.69 456.645C1258.35 458.404 1265.5 466.802 1273.58 475.307C1291.59 494.274 1294.21 498.999 1294.21 512.543C1294.21 522.767 1292.26 527.312 1285.45 532.974C1277.66 539.456 1262.5 541.038 1252.44 536.421Z" fill="#767676"/>
<path d="M938.677 536.382C930.699 532.759 926.523 526.514 924.761 515.573C923.963 510.617 923.173 505.845 923.006 504.97C922.837 504.088 926.528 502.78 931.29 502.035C941.31 500.466 942.428 501.349 942.463 510.856C942.48 515.71 943.286 517.608 946.347 520.016C951.352 523.953 954.388 523.85 958.99 519.585C962.118 516.686 962.611 515.181 961.991 510.425C961.094 503.546 957.193 498.109 942.171 482.8C927.255 467.598 924.415 461.781 925.125 447.891C925.593 438.745 926.229 436.69 929.851 432.637C934.51 427.423 944.543 423.398 952.884 423.398C959.315 423.398 969.994 427.684 973.589 431.708C977.096 435.633 980.589 446.134 980.589 452.752V458.288L973.155 458.796C963.746 459.439 961.537 458.166 961.537 452.101C961.537 446.121 956.617 439.519 952.16 439.519C947.885 439.519 942.483 445.306 942.495 449.872C942.506 454.703 945.442 458.782 960.224 474.523C975.659 490.959 980.959 500.087 981.109 510.495C981.172 514.83 980.138 520.311 978.676 523.392C972.236 536.964 953.416 543.075 938.677 536.382Z" fill="#767676"/>
<path d="M1365.54 537.842C1359.28 534.649 1354.76 529.43 1350.86 520.904C1345.57 509.314 1350.37 490.521 1361.35 479.853L1366.64 474.716L1362.37 466.278C1351.11 444.053 1359.95 423.062 1380.58 423.062C1389.29 423.062 1396.12 426.616 1400.82 433.589C1407.52 443.538 1403.8 461.165 1392.87 471.172C1386.87 476.67 1386.92 477.193 1394.68 489.484C1399.15 496.568 1401.13 495.388 1401.17 485.612C1401.2 477.824 1403.16 476.159 1412.3 476.159C1418.43 476.159 1420.04 476.678 1420.6 478.84C1420.99 480.314 1418.83 489.052 1415.81 498.258L1410.31 514.995L1416.03 520.932C1422.33 527.48 1425.49 535.275 1422.68 537.362C1417.72 541.048 1405.67 538.802 1401.64 533.441C1400.19 531.513 1399.44 531.434 1397.25 532.979C1386.12 540.798 1374.76 542.541 1365.54 537.842ZM1385.14 520.82C1390.42 518.089 1390.57 515.794 1385.8 510.133C1383.79 507.738 1382.14 505.374 1382.14 504.879C1382.14 504.384 1380.17 501.258 1377.76 497.932L1373.38 491.886L1370.46 498.311C1362.73 515.358 1371.04 528.11 1385.14 520.82ZM1382.97 457.951C1391.35 449.57 1386.8 434.225 1377.8 440.527C1374.89 442.562 1374.58 443.698 1375.37 449.469C1376.18 455.335 1378.34 460.038 1380.22 460.038C1380.59 460.038 1381.82 459.099 1382.97 457.951Z" fill="#A1BF36"/>
</svg>
