<svg width="552" height="204" viewBox="0 0 552 204" fill="none" xmlns="http://www.w3.org/2000/svg">
<g filter="url(#filter0_n_16_12)">
<path d="M143.133 0L286.267 135.19H0.000263729L143.133 0Z" fill="url(#paint0_linear_16_12)"/>
<path d="M163.658 0H407.652L551.462 133.841H305.319L163.658 0Z" fill="url(#paint1_linear_16_12)"/>
<path d="M0 150.032H552V204H0V150.032Z" fill="url(#paint2_linear_16_12)"/>
</g>
<path d="M35.728 191H30.784V163.976H35.728V191ZM48.544 163.976H53.44V191H48.544V163.976ZM51.472 179.144H33.04V175.352H51.472V179.144ZM70.5708 191H65.6748V163.976H70.5708V191ZM69.8508 163.976H76.5228C79.5308 163.976 81.8668 164.728 83.5308 166.232C85.1948 167.736 86.0268 170.008 86.0268 173.048C86.0268 175.704 85.1628 177.784 83.4348 179.288C81.7388 180.792 79.4348 181.544 76.5228 181.544H69.8508V177.944H75.8508C77.5788 177.944 78.9708 177.528 80.0268 176.696C81.0828 175.864 81.6108 174.616 81.6108 172.952C81.6108 171.256 81.0828 170.008 80.0268 169.208C79.0028 168.376 77.6108 167.96 75.8508 167.96H69.8508V163.976ZM107.485 191.528C104.861 191.528 102.557 191 100.573 189.944C98.621 188.888 97.117 187.32 96.061 185.24C95.005 183.16 94.509 180.632 94.573 177.656C94.637 174.616 95.245 172.04 96.397 169.928C97.549 167.816 99.149 166.216 101.197 165.128C103.277 164.04 105.645 163.496 108.301 163.496C111.981 163.496 114.829 164.296 116.845 165.896C118.893 167.464 120.237 169.784 120.877 172.856L116.173 173.528C115.853 172.184 115.293 171.112 114.493 170.312C113.725 169.512 112.797 168.952 111.709 168.632C110.621 168.28 109.485 168.104 108.301 168.104C105.229 168.104 102.957 168.952 101.485 170.648C100.045 172.312 99.341 174.52 99.373 177.272C99.373 180.344 100.189 182.712 101.821 184.376C103.485 186.008 105.821 186.824 108.829 186.824C110.045 186.824 111.197 186.632 112.285 186.248C113.405 185.832 114.365 185.224 115.165 184.424C115.965 183.592 116.509 182.536 116.797 181.256H110.845V177.656H121.405V191H118.093L116.989 186.296H116.893C116.669 186.904 116.301 187.512 115.789 188.12C115.277 188.728 114.637 189.288 113.869 189.8C113.101 190.312 112.189 190.728 111.133 191.048C110.077 191.368 108.861 191.528 107.485 191.528ZM160.612 191.528C159.108 191.528 157.652 191.352 156.244 191C154.836 190.68 153.556 190.136 152.404 189.368C151.284 188.6 150.372 187.624 149.668 186.44C148.996 185.256 148.644 183.816 148.612 182.12H153.556C153.556 182.248 153.588 182.504 153.652 182.888C153.716 183.24 153.876 183.656 154.132 184.136C154.42 184.616 154.82 185.08 155.332 185.528C155.876 185.976 156.596 186.36 157.492 186.68C158.42 186.968 159.572 187.112 160.948 187.112C161.908 187.112 162.724 187.016 163.396 186.824C164.1 186.632 164.676 186.376 165.124 186.056C165.604 185.736 165.956 185.384 166.18 185C166.404 184.584 166.516 184.184 166.516 183.8C166.516 182.904 166.196 182.2 165.556 181.688C164.948 181.144 164.116 180.712 163.06 180.392C162.036 180.04 160.9 179.736 159.652 179.48C158.436 179.192 157.204 178.856 155.956 178.472C154.74 178.088 153.62 177.592 152.596 176.984C151.572 176.344 150.772 175.528 150.196 174.536C149.652 173.544 149.412 172.28 149.476 170.744C149.604 169.24 150.132 167.944 151.06 166.856C151.988 165.768 153.284 164.936 154.948 164.36C156.612 163.784 158.548 163.496 160.756 163.496C162.676 163.496 164.452 163.848 166.084 164.552C167.748 165.224 169.076 166.248 170.068 167.624C171.092 168.968 171.604 170.696 171.604 172.808H166.852C166.852 171.816 166.628 171.016 166.18 170.408C165.732 169.768 165.156 169.288 164.452 168.968C163.78 168.616 163.06 168.392 162.292 168.296C161.524 168.168 160.836 168.104 160.228 168.104C158.628 168.104 157.3 168.376 156.244 168.92C155.22 169.432 154.708 170.232 154.708 171.32C154.676 172.248 154.98 172.984 155.62 173.528C156.26 174.04 157.108 174.456 158.164 174.776C159.22 175.096 160.372 175.4 161.62 175.688C162.868 175.944 164.116 176.248 165.364 176.6C166.612 176.952 167.732 177.432 168.724 178.04C169.748 178.648 170.548 179.448 171.124 180.44C171.732 181.432 171.988 182.728 171.892 184.328C171.828 185.832 171.3 187.128 170.308 188.216C169.316 189.272 167.988 190.088 166.324 190.664C164.692 191.24 162.788 191.528 160.612 191.528ZM182.773 191V163.976H187.813V175.544H187.909C187.941 175.448 188.053 175.192 188.245 174.776C188.437 174.328 188.773 173.832 189.253 173.288C189.733 172.744 190.373 172.28 191.173 171.896C192.005 171.48 193.045 171.272 194.293 171.272C195.669 171.272 196.805 171.512 197.701 171.992C198.597 172.472 199.301 173.096 199.813 173.864C200.357 174.632 200.741 175.48 200.965 176.408C201.221 177.304 201.381 178.2 201.445 179.096C201.509 179.96 201.541 180.744 201.541 181.448V191H196.789V181.4C196.789 180.344 196.677 179.384 196.453 178.52C196.261 177.656 195.861 176.952 195.253 176.408C194.645 175.864 193.717 175.592 192.469 175.592C191.221 175.592 190.261 175.896 189.589 176.504C188.917 177.08 188.453 177.816 188.197 178.712C187.941 179.608 187.813 180.568 187.813 181.592V191H182.773ZM221.39 191.48C219.118 191.48 217.262 191 215.822 190.04C214.414 189.048 213.358 187.784 212.654 186.248C211.982 184.712 211.63 183.112 211.598 181.448C211.566 179.464 211.934 177.704 212.702 176.168C213.502 174.6 214.622 173.384 216.062 172.52C217.534 171.624 219.262 171.176 221.246 171.176C223.006 171.176 224.59 171.56 225.998 172.328C227.406 173.096 228.51 174.168 229.31 175.544C230.142 176.92 230.574 178.568 230.606 180.488C230.606 180.552 230.606 180.744 230.606 181.064C230.606 181.352 230.606 181.576 230.606 181.736H216.254C216.254 183.56 216.702 184.968 217.598 185.96C218.526 186.92 219.758 187.4 221.294 187.4C222.51 187.4 223.518 187.096 224.318 186.488C225.15 185.88 225.646 185.08 225.806 184.088H230.558C230.43 185.464 229.982 186.712 229.214 187.832C228.446 188.952 227.406 189.848 226.094 190.52C224.782 191.16 223.214 191.48 221.39 191.48ZM216.398 179.528H225.71C225.678 179.304 225.614 178.952 225.518 178.472C225.422 177.992 225.214 177.496 224.894 176.984C224.574 176.472 224.11 176.04 223.502 175.688C222.894 175.336 222.11 175.16 221.15 175.16C220.19 175.16 219.406 175.32 218.798 175.64C218.19 175.96 217.726 176.36 217.406 176.84C217.086 177.32 216.846 177.8 216.686 178.28C216.526 178.76 216.43 179.176 216.398 179.528ZM249.466 191.48C247.514 191.48 245.93 191.064 244.714 190.232C243.53 189.4 242.666 188.232 242.122 186.728C241.578 185.224 241.306 183.48 241.306 181.496C241.306 179.416 241.578 177.624 242.122 176.12C242.698 174.584 243.578 173.4 244.762 172.568C245.978 171.704 247.546 171.272 249.466 171.272C250.714 171.272 251.754 171.48 252.586 171.896C253.45 172.28 254.122 172.744 254.602 173.288C255.114 173.832 255.482 174.328 255.706 174.776C255.93 175.224 256.058 175.496 256.09 175.592H256.186V163.976H261.226V191H257.002L256.186 187.496H256.09C256.058 187.56 255.914 187.8 255.658 188.216C255.434 188.632 255.05 189.096 254.506 189.608C253.994 190.12 253.322 190.568 252.49 190.952C251.658 191.304 250.65 191.48 249.466 191.48ZM251.05 187.352C252.266 187.352 253.242 187.096 253.978 186.584C254.746 186.072 255.29 185.384 255.61 184.52C255.962 183.624 256.138 182.6 256.138 181.448C256.138 180.328 255.978 179.336 255.658 178.472C255.338 177.576 254.81 176.888 254.074 176.408C253.37 175.896 252.41 175.64 251.194 175.64C249.882 175.64 248.842 175.912 248.074 176.456C247.338 177 246.826 177.72 246.538 178.616C246.25 179.512 246.106 180.456 246.106 181.448C246.106 182.44 246.234 183.4 246.49 184.328C246.778 185.224 247.274 185.96 247.978 186.536C248.714 187.08 249.738 187.352 251.05 187.352ZM280.468 191.48C279.796 191.48 279.06 191.384 278.26 191.192C277.46 191.032 276.66 190.776 275.86 190.424C275.06 190.04 274.324 189.56 273.652 188.984C273.012 188.408 272.5 187.736 272.116 186.968C271.732 186.2 271.54 185.304 271.54 184.28H276.052C276.052 184.312 276.068 184.52 276.1 184.904C276.164 185.288 276.324 185.72 276.58 186.2C276.836 186.648 277.252 187.048 277.828 187.4C278.404 187.752 279.236 187.928 280.324 187.928C281.188 187.928 281.892 187.816 282.436 187.592C282.98 187.368 283.38 187.096 283.636 186.776C283.924 186.424 284.068 186.04 284.068 185.624C284.068 184.92 283.764 184.376 283.156 183.992C282.58 183.576 281.828 183.24 280.9 182.984C279.972 182.728 278.98 182.472 277.924 182.216C276.9 181.928 275.924 181.56 274.996 181.112C274.1 180.664 273.364 180.056 272.788 179.288C272.212 178.488 271.924 177.464 271.924 176.216C271.924 174.36 272.66 172.968 274.132 172.04C275.604 171.112 277.476 170.648 279.748 170.648C280.964 170.648 282.1 170.792 283.156 171.08C284.244 171.336 285.204 171.768 286.036 172.376C286.868 172.952 287.524 173.704 288.004 174.632C288.516 175.528 288.772 176.632 288.772 177.944H284.26C284.292 177.208 284.164 176.616 283.876 176.168C283.62 175.688 283.268 175.32 282.82 175.064C282.372 174.808 281.892 174.632 281.38 174.536C280.868 174.44 280.372 174.392 279.892 174.392C278.74 174.392 277.86 174.6 277.252 175.016C276.676 175.4 276.388 175.912 276.388 176.552C276.388 177.288 276.676 177.864 277.252 178.28C277.86 178.664 278.628 178.984 279.556 179.24C280.516 179.496 281.524 179.768 282.58 180.056C283.636 180.312 284.628 180.664 285.556 181.112C286.484 181.56 287.236 182.168 287.812 182.936C288.42 183.672 288.724 184.664 288.724 185.912C288.724 187.16 288.372 188.2 287.668 189.032C286.996 189.832 286.036 190.44 284.788 190.856C283.572 191.272 282.132 191.48 280.468 191.48ZM342.523 191.096C341.339 190.616 340.219 190.104 339.163 189.56C338.139 189.016 337.083 188.392 335.995 187.688C334.651 188.936 333.115 189.88 331.387 190.52C329.659 191.128 327.915 191.432 326.155 191.432C324.395 191.432 322.779 191.128 321.307 190.52C319.835 189.912 318.635 189.016 317.707 187.832C316.811 186.648 316.363 185.16 316.363 183.368C316.363 182.056 316.619 180.968 317.131 180.104C317.675 179.208 318.299 178.488 319.003 177.944C319.739 177.368 320.427 176.936 321.067 176.648C321.739 176.328 322.219 176.104 322.507 175.976C322.347 175.72 322.027 175.32 321.547 174.776C321.067 174.2 320.619 173.48 320.203 172.616C319.787 171.752 319.579 170.776 319.579 169.688C319.579 168.344 319.931 167.224 320.635 166.328C321.371 165.432 322.299 164.76 323.419 164.312C324.571 163.832 325.787 163.592 327.067 163.592C328.347 163.56 329.547 163.768 330.667 164.216C331.787 164.632 332.699 165.288 333.403 166.184C334.139 167.048 334.507 168.152 334.507 169.496C334.507 170.616 334.235 171.608 333.691 172.472C333.147 173.304 332.507 174.024 331.771 174.632C331.035 175.24 330.363 175.704 329.755 176.024C329.147 176.344 328.779 176.536 328.651 176.6C328.875 176.92 329.259 177.352 329.803 177.896C330.379 178.44 331.051 179.064 331.819 179.768C332.587 180.44 333.419 181.144 334.315 181.88C334.507 181.592 334.715 181.208 334.939 180.728C335.163 180.248 335.339 179.72 335.467 179.144C335.595 178.568 335.611 177.992 335.515 177.416C335.419 176.84 335.131 176.328 334.651 175.88L338.731 173.192C338.891 173.352 339.099 173.704 339.355 174.248C339.611 174.76 339.835 175.4 340.027 176.168C340.251 176.936 340.379 177.784 340.411 178.712C340.475 179.64 340.379 180.6 340.123 181.592C339.867 182.584 339.387 183.576 338.683 184.568C339.483 185.08 340.299 185.576 341.131 186.056C341.995 186.504 343.051 186.984 344.299 187.496L342.523 191.096ZM332.203 184.952C331.307 184.248 330.443 183.544 329.611 182.84C328.779 182.104 327.995 181.352 327.259 180.584C326.523 179.784 325.819 179 325.147 178.232C324.155 178.744 323.243 179.336 322.411 180.008C321.611 180.648 321.211 181.576 321.211 182.792C321.211 183.752 321.467 184.568 321.979 185.24C322.491 185.88 323.163 186.376 323.995 186.728C324.859 187.048 325.771 187.208 326.731 187.208C327.723 187.176 328.699 186.984 329.659 186.632C330.619 186.248 331.467 185.688 332.203 184.952ZM325.963 174.344C326.219 174.216 326.523 174.056 326.875 173.864C327.227 173.672 327.595 173.448 327.979 173.192C328.363 172.936 328.731 172.648 329.083 172.328C329.435 172.008 329.723 171.672 329.947 171.32C330.171 170.968 330.299 170.6 330.331 170.216C330.395 169.448 330.219 168.84 329.803 168.392C329.387 167.944 328.859 167.64 328.219 167.48C327.579 167.288 326.923 167.272 326.251 167.432C325.611 167.56 325.067 167.848 324.619 168.296C324.171 168.744 323.963 169.368 323.995 170.168C324.027 170.744 324.203 171.4 324.523 172.136C324.843 172.84 325.323 173.576 325.963 174.344ZM376.663 191H371.767V163.976H376.663V191ZM375.943 163.976H382.615C385.623 163.976 387.959 164.728 389.623 166.232C391.287 167.736 392.119 170.008 392.119 173.048C392.119 175.704 391.255 177.784 389.527 179.288C387.831 180.792 385.527 181.544 382.615 181.544H375.943V177.944H381.943C383.671 177.944 385.063 177.528 386.119 176.696C387.175 175.864 387.703 174.616 387.703 172.952C387.703 171.256 387.175 170.008 386.119 169.208C385.095 168.376 383.703 167.96 381.943 167.96H375.943V163.976ZM408.201 191.48C406.409 191.48 404.953 191.064 403.833 190.232C402.713 189.368 401.897 188.184 401.385 186.68C400.905 185.144 400.665 183.384 400.665 181.4C400.665 179.384 400.921 177.608 401.433 176.072C401.945 174.536 402.745 173.352 403.833 172.52C404.953 171.656 406.409 171.224 408.201 171.224C409.353 171.224 410.313 171.384 411.081 171.704C411.881 172.024 412.521 172.408 413.001 172.856C413.513 173.304 413.897 173.752 414.153 174.2C414.409 174.616 414.585 174.952 414.681 175.208H414.777V171.272H419.817V191H415.593L414.777 187.784H414.681C414.617 188.008 414.441 188.328 414.153 188.744C413.865 189.128 413.465 189.544 412.953 189.992C412.473 190.408 411.833 190.76 411.033 191.048C410.265 191.336 409.321 191.48 408.201 191.48ZM410.217 187.352C411.401 187.352 412.329 187.096 413.001 186.584C413.673 186.072 414.137 185.368 414.393 184.472C414.649 183.544 414.777 182.536 414.777 181.448C414.777 180.264 414.633 179.24 414.345 178.376C414.089 177.48 413.625 176.792 412.953 176.312C412.313 175.8 411.401 175.544 410.217 175.544C408.969 175.544 407.993 175.816 407.289 176.36C406.617 176.904 406.137 177.624 405.849 178.52C405.593 179.384 405.465 180.36 405.465 181.448C405.465 182.536 405.593 183.528 405.849 184.424C406.137 185.32 406.617 186.04 407.289 186.584C407.993 187.096 408.969 187.352 410.217 187.352ZM436.383 191C434.815 191 433.631 190.616 432.831 189.848C432.063 189.08 431.679 187.832 431.679 186.104V174.2H436.239V187.16H440.847V191H436.383ZM428.703 174.728V171.272C429.407 171.272 429.983 171.224 430.431 171.128C430.879 171.032 431.231 170.824 431.487 170.504C431.775 170.184 431.983 169.688 432.111 169.016C432.239 168.344 432.303 167.416 432.303 166.232H436.239V171.272H440.751V174.728H428.703ZM451.824 191V171.272H456.72V191H451.824ZM454.272 168.728C453.216 168.728 452.496 168.456 452.112 167.912C451.76 167.368 451.584 166.744 451.584 166.04C451.584 165.336 451.76 164.728 452.112 164.216C452.496 163.672 453.216 163.4 454.272 163.4C455.36 163.4 456.064 163.672 456.384 164.216C456.736 164.728 456.912 165.336 456.912 166.04C456.912 166.744 456.736 167.368 456.384 167.912C456.064 168.456 455.36 168.728 454.272 168.728ZM476.794 191.48C474.618 191.48 472.778 191.048 471.274 190.184C469.802 189.32 468.698 188.136 467.962 186.632C467.226 185.096 466.858 183.352 466.858 181.4C466.858 179.416 467.226 177.672 467.962 176.168C468.698 174.632 469.802 173.432 471.274 172.568C472.778 171.704 474.634 171.272 476.842 171.272C480.074 171.272 482.522 172.2 484.186 174.056C485.882 175.912 486.73 178.36 486.73 181.4C486.73 183.288 486.378 185 485.674 186.536C484.97 188.072 483.882 189.288 482.41 190.184C480.938 191.048 479.066 191.48 476.794 191.48ZM476.794 187.352C478.234 187.352 479.322 187.048 480.058 186.44C480.826 185.832 481.338 185.064 481.594 184.136C481.85 183.176 481.978 182.216 481.978 181.256C481.978 180.232 481.85 179.256 481.594 178.328C481.338 177.4 480.826 176.632 480.058 176.024C479.322 175.384 478.234 175.064 476.794 175.064C475.386 175.064 474.298 175.384 473.53 176.024C472.794 176.632 472.282 177.4 471.994 178.328C471.738 179.256 471.61 180.232 471.61 181.256C471.61 182.216 471.738 183.176 471.994 184.136C472.282 185.064 472.794 185.832 473.53 186.44C474.298 187.048 475.386 187.352 476.794 187.352ZM505.339 191.48C504.667 191.48 503.931 191.384 503.131 191.192C502.331 191.032 501.531 190.776 500.731 190.424C499.931 190.04 499.195 189.56 498.523 188.984C497.883 188.408 497.371 187.736 496.987 186.968C496.603 186.2 496.411 185.304 496.411 184.28H500.923C500.923 184.312 500.939 184.52 500.971 184.904C501.035 185.288 501.195 185.72 501.451 186.2C501.707 186.648 502.123 187.048 502.699 187.4C503.275 187.752 504.107 187.928 505.195 187.928C506.059 187.928 506.763 187.816 507.307 187.592C507.851 187.368 508.251 187.096 508.507 186.776C508.795 186.424 508.939 186.04 508.939 185.624C508.939 184.92 508.635 184.376 508.027 183.992C507.451 183.576 506.699 183.24 505.771 182.984C504.843 182.728 503.851 182.472 502.795 182.216C501.771 181.928 500.795 181.56 499.867 181.112C498.971 180.664 498.235 180.056 497.659 179.288C497.083 178.488 496.795 177.464 496.795 176.216C496.795 174.36 497.531 172.968 499.003 172.04C500.475 171.112 502.347 170.648 504.619 170.648C505.835 170.648 506.971 170.792 508.027 171.08C509.115 171.336 510.075 171.768 510.907 172.376C511.739 172.952 512.395 173.704 512.875 174.632C513.387 175.528 513.643 176.632 513.643 177.944H509.131C509.163 177.208 509.035 176.616 508.747 176.168C508.491 175.688 508.139 175.32 507.691 175.064C507.243 174.808 506.763 174.632 506.251 174.536C505.739 174.44 505.243 174.392 504.763 174.392C503.611 174.392 502.731 174.6 502.123 175.016C501.547 175.4 501.259 175.912 501.259 176.552C501.259 177.288 501.547 177.864 502.123 178.28C502.731 178.664 503.499 178.984 504.427 179.24C505.387 179.496 506.395 179.768 507.451 180.056C508.507 180.312 509.499 180.664 510.427 181.112C511.355 181.56 512.107 182.168 512.683 182.936C513.291 183.672 513.595 184.664 513.595 185.912C513.595 187.16 513.243 188.2 512.539 189.032C511.867 189.832 510.907 190.44 509.659 190.856C508.443 191.272 507.003 191.48 505.339 191.48Z" fill="white"/>
<defs>
<filter id="filter0_n_16_12" x="0" y="0" width="552" height="204" filterUnits="userSpaceOnUse" color-interpolation-filters="sRGB">
<feFlood flood-opacity="0" result="BackgroundImageFix"/>
<feBlend mode="normal" in="SourceGraphic" in2="BackgroundImageFix" result="shape"/>
<feTurbulence type="fractalNoise" baseFrequency="5 5" stitchTiles="stitch" numOctaves="3" result="noise" seed="4736" />
<feColorMatrix in="noise" type="luminanceToAlpha" result="alphaNoise" />
<feComponentTransfer in="alphaNoise" result="coloredNoise1">
<feFuncA type="discrete" tableValues="0 0 0 0 0 0 0 0 0 0 0 0 1 1 1 1 1 1 1 1 1 1 1 1 1 1 1 1 1 1 1 1 1 1 1 1 1 1 0 0 0 0 0 0 0 0 0 0 0 0 0 0 0 0 0 0 0 0 0 0 0 0 0 0 0 0 0 0 0 0 0 0 0 0 0 0 0 0 0 0 0 0 0 0 0 0 0 0 0 0 0 0 0 0 0 0 0 0 0 0 "/>
</feComponentTransfer>
<feComposite operator="in" in2="shape" in="coloredNoise1" result="noise1Clipped" />
<feFlood flood-color="rgba(0, 0, 0, 0.25)" result="color1Flood" />
<feComposite operator="in" in2="noise1Clipped" in="color1Flood" result="color1" />
<feMerge result="effect1_noise_16_12">
<feMergeNode in="shape" />
<feMergeNode in="color1" />
</feMerge>
</filter>
<linearGradient id="paint0_linear_16_12" x1="1.31087e-07" y1="92.6009" x2="551.999" y2="111.429" gradientUnits="userSpaceOnUse">
<stop stop-color="#529DFF"/>
<stop offset="1" stop-color="#FF5588"/>
</linearGradient>
<linearGradient id="paint1_linear_16_12" x1="1.31087e-07" y1="92.6009" x2="551.999" y2="111.429" gradientUnits="userSpaceOnUse">
<stop stop-color="#529DFF"/>
<stop offset="1" stop-color="#FF5588"/>
</linearGradient>
<linearGradient id="paint2_linear_16_12" x1="1.31087e-07" y1="92.6009" x2="551.999" y2="111.429" gradientUnits="userSpaceOnUse">
<stop stop-color="#529DFF"/>
<stop offset="1" stop-color="#FF5588"/>
</linearGradient>
</defs>
</svg>
