<svg width="552" height="199" viewBox="0 0 552 199" fill="none" xmlns="http://www.w3.org/2000/svg">
<g filter="url(#filter0_n_15_6)">
<path d="M143.133 0L286.266 135.19H0L143.133 0Z" fill="url(#paint0_linear_15_6)"/>
<path d="M163.658 0H407.651L551.462 133.841H305.319L163.658 0Z" fill="url(#paint1_linear_15_6)"/>
</g>
<path d="M181.768 186.624C180.36 186.624 179 186.448 177.688 186.096C176.376 185.776 175.176 185.264 174.088 184.56C173 183.824 172.136 182.912 171.496 181.824C170.856 180.704 170.52 179.36 170.488 177.792H172.696C172.696 177.888 172.728 178.176 172.792 178.656C172.856 179.136 173.016 179.712 173.272 180.384C173.56 181.056 174.024 181.712 174.664 182.352C175.336 182.992 176.248 183.536 177.4 183.984C178.584 184.4 180.088 184.608 181.912 184.608C183.576 184.608 184.904 184.416 185.896 184.032C186.92 183.616 187.688 183.12 188.2 182.544C188.712 181.936 189.048 181.36 189.208 180.816C189.4 180.272 189.496 179.856 189.496 179.568C189.528 178.352 189.224 177.376 188.584 176.64C187.944 175.872 187.08 175.264 185.992 174.816C184.904 174.336 183.72 173.936 182.44 173.616C181.16 173.296 179.864 172.96 178.552 172.608C177.272 172.224 176.088 171.76 175 171.216C173.912 170.64 173.048 169.888 172.408 168.96C171.8 168 171.528 166.768 171.592 165.264C171.656 163.856 172.136 162.656 173.032 161.664C173.96 160.64 175.176 159.856 176.68 159.312C178.216 158.768 179.896 158.496 181.72 158.496C183.544 158.496 185.192 158.832 186.664 159.504C188.168 160.144 189.352 161.104 190.216 162.384C191.112 163.632 191.528 165.216 191.464 167.136H189.304C189.368 165.792 189.128 164.688 188.584 163.824C188.04 162.96 187.352 162.288 186.52 161.808C185.688 161.328 184.824 161.008 183.928 160.848C183.032 160.656 182.232 160.56 181.528 160.56C179.32 160.56 177.496 161.024 176.056 161.952C174.648 162.848 173.912 164 173.848 165.408C173.816 166.624 174.12 167.6 174.76 168.336C175.4 169.072 176.264 169.664 177.352 170.112C178.44 170.528 179.624 170.896 180.904 171.216C182.216 171.536 183.512 171.872 184.792 172.224C186.072 172.576 187.24 173.04 188.296 173.616C189.384 174.192 190.232 174.976 190.84 175.968C191.48 176.928 191.784 178.176 191.752 179.712C191.688 181.184 191.208 182.432 190.312 183.456C189.416 184.48 188.232 185.264 186.76 185.808C185.288 186.352 183.624 186.624 181.768 186.624ZM202.204 186V158.976H204.412V171.696H204.508C204.572 171.472 204.732 171.088 204.988 170.544C205.244 170 205.644 169.424 206.188 168.816C206.732 168.176 207.436 167.632 208.3 167.184C209.196 166.736 210.3 166.512 211.612 166.512C212.956 166.512 214.076 166.704 214.972 167.088C215.868 167.472 216.588 168 217.132 168.672C217.708 169.344 218.14 170.112 218.428 170.976C218.716 171.808 218.908 172.688 219.004 173.616C219.1 174.512 219.148 175.424 219.148 176.352V186H217.036V176.352C217.036 174.752 216.86 173.376 216.508 172.224C216.156 171.04 215.564 170.128 214.732 169.488C213.9 168.848 212.732 168.528 211.228 168.528C209.692 168.528 208.412 168.912 207.388 169.68C206.396 170.448 205.644 171.456 205.132 172.704C204.652 173.952 204.412 175.312 204.412 176.784V186H202.204ZM238.609 186.48C236.529 186.48 234.801 185.984 233.425 184.992C232.081 184 231.073 182.736 230.401 181.2C229.729 179.632 229.409 178.016 229.441 176.352C229.441 174.624 229.793 173.008 230.497 171.504C231.201 170 232.225 168.8 233.569 167.904C234.945 166.976 236.609 166.512 238.561 166.512C240.193 166.512 241.633 166.88 242.881 167.616C244.161 168.32 245.185 169.328 245.953 170.64C246.721 171.92 247.153 173.456 247.249 175.248C247.281 175.408 247.297 175.6 247.297 175.824C247.297 176.048 247.297 176.256 247.297 176.448H231.553C231.553 178.912 232.161 180.88 233.377 182.352C234.625 183.824 236.369 184.56 238.609 184.56C240.241 184.56 241.649 184.128 242.833 183.264C244.049 182.4 244.801 181.232 245.089 179.76H247.249C247.025 181.072 246.513 182.24 245.713 183.264C244.913 184.256 243.905 185.04 242.689 185.616C241.473 186.192 240.113 186.48 238.609 186.48ZM231.697 175.008H245.041C245.009 174.4 244.865 173.728 244.609 172.992C244.385 172.224 244.017 171.488 243.505 170.784C242.993 170.08 242.321 169.504 241.489 169.056C240.689 168.608 239.713 168.384 238.561 168.384C237.505 168.384 236.577 168.576 235.777 168.96C234.977 169.312 234.289 169.792 233.713 170.4C233.169 171.008 232.721 171.712 232.369 172.512C232.049 173.28 231.825 174.112 231.697 175.008ZM267.136 186.48C265.28 186.48 263.696 186.032 262.384 185.136C261.104 184.24 260.128 183.04 259.456 181.536C258.784 180.032 258.448 178.352 258.448 176.496C258.448 174.608 258.784 172.912 259.456 171.408C260.16 169.904 261.152 168.72 262.432 167.856C263.744 166.96 265.328 166.512 267.184 166.512C268.496 166.512 269.616 166.736 270.544 167.184C271.472 167.632 272.208 168.176 272.752 168.816C273.296 169.456 273.696 170.064 273.952 170.64C274.24 171.184 274.432 171.568 274.528 171.792H274.624V158.976H276.88V186H275.056L274.672 181.296H274.576C274.48 181.456 274.272 181.824 273.952 182.4C273.664 182.944 273.232 183.536 272.656 184.176C272.08 184.816 271.328 185.36 270.4 185.808C269.504 186.256 268.416 186.48 267.136 186.48ZM267.424 184.416C268.736 184.416 269.92 184.112 270.976 183.504C272.064 182.896 272.928 182 273.568 180.816C274.208 179.6 274.528 178.16 274.528 176.496C274.528 174.832 274.224 173.424 273.616 172.272C273.04 171.088 272.24 170.192 271.216 169.584C270.192 168.944 269.04 168.624 267.76 168.624C266.16 168.624 264.832 169.008 263.776 169.776C262.72 170.512 261.92 171.488 261.376 172.704C260.864 173.888 260.608 175.152 260.608 176.496C260.608 177.808 260.832 179.088 261.28 180.336C261.76 181.552 262.496 182.544 263.488 183.312C264.512 184.048 265.824 184.416 267.424 184.416ZM295.386 186.48C294.074 186.48 292.954 186.304 292.026 185.952C291.098 185.568 290.33 185.088 289.722 184.512C289.114 183.936 288.634 183.344 288.282 182.736C287.93 182.128 287.674 181.568 287.514 181.056C287.386 180.544 287.322 180.16 287.322 179.904H289.482C289.482 179.936 289.514 180.208 289.578 180.72C289.674 181.2 289.898 181.76 290.25 182.4C290.634 183.04 291.226 183.6 292.026 184.08C292.826 184.528 293.946 184.752 295.386 184.752C296.442 184.752 297.402 184.64 298.266 184.416C299.13 184.16 299.818 183.776 300.33 183.264C300.842 182.72 301.098 182.016 301.098 181.152C301.098 180.128 300.762 179.344 300.09 178.8C299.45 178.224 298.618 177.808 297.594 177.552C296.57 177.264 295.498 177.008 294.378 176.784C293.258 176.528 292.186 176.208 291.162 175.824C290.17 175.44 289.354 174.88 288.714 174.144C288.106 173.408 287.802 172.4 287.802 171.12C287.834 169.584 288.554 168.352 289.962 167.424C291.37 166.464 293.178 165.984 295.386 165.984C296.218 165.984 297.098 166.08 298.026 166.272C298.954 166.464 299.802 166.8 300.57 167.28C301.37 167.76 302.01 168.416 302.49 169.248C303.002 170.08 303.21 171.168 303.114 172.512H301.002C301.034 171.52 300.858 170.72 300.474 170.112C300.122 169.504 299.626 169.04 298.986 168.72C298.378 168.368 297.738 168.144 297.066 168.048C296.394 167.952 295.786 167.904 295.242 167.904C293.738 167.904 292.458 168.176 291.402 168.72C290.378 169.264 289.866 170.096 289.866 171.216C289.866 172.144 290.186 172.864 290.826 173.376C291.466 173.888 292.298 174.288 293.322 174.576C294.346 174.832 295.418 175.072 296.538 175.296C297.658 175.52 298.73 175.84 299.754 176.256C300.778 176.672 301.61 177.264 302.25 178.032C302.89 178.8 303.21 179.872 303.21 181.248C303.21 182.496 302.858 183.504 302.154 184.272C301.482 185.04 300.554 185.6 299.37 185.952C298.186 186.304 296.858 186.48 295.386 186.48ZM358.582 186.048C357.366 185.6 356.246 185.072 355.222 184.464C354.198 183.856 353.014 183.104 351.67 182.208C350.486 183.584 349.078 184.624 347.446 185.328C345.814 186.032 344.134 186.4 342.406 186.432C340.678 186.496 339.078 186.24 337.606 185.664C336.134 185.088 334.934 184.208 334.006 183.024C333.078 181.84 332.614 180.352 332.614 178.56C332.614 177.44 332.822 176.48 333.238 175.68C333.654 174.848 334.182 174.128 334.822 173.52C335.494 172.88 336.214 172.336 336.982 171.888C337.75 171.44 338.486 171.024 339.19 170.64C338.774 170.032 338.342 169.392 337.894 168.72C337.478 168.016 337.11 167.28 336.79 166.512C336.502 165.744 336.358 164.976 336.358 164.208C336.358 162.96 336.662 161.92 337.27 161.088C337.91 160.256 338.726 159.632 339.718 159.216C340.71 158.8 341.75 158.592 342.838 158.592C343.958 158.592 344.998 158.784 345.958 159.168C346.95 159.552 347.75 160.128 348.358 160.896C348.998 161.664 349.318 162.624 349.318 163.776C349.318 164.8 349.014 165.728 348.406 166.56C347.798 167.392 347.062 168.128 346.198 168.768C345.366 169.408 344.566 169.936 343.798 170.352C343.03 170.736 342.486 171.008 342.166 171.168C342.742 171.936 343.526 172.832 344.518 173.856C345.542 174.848 346.63 175.84 347.782 176.832C348.934 177.824 350.038 178.688 351.094 179.424C351.542 178.72 351.926 177.92 352.246 177.024C352.566 176.128 352.79 175.216 352.918 174.288C353.046 173.36 353.046 172.48 352.918 171.648C352.79 170.784 352.486 170.064 352.006 169.488L353.782 168.144C354.166 168.656 354.454 169.28 354.646 170.016C354.87 170.752 355.014 171.568 355.078 172.464C355.142 173.36 355.094 174.304 354.934 175.296C354.806 176.256 354.566 177.2 354.214 178.128C353.894 179.024 353.462 179.856 352.918 180.624C354.134 181.456 355.222 182.16 356.182 182.736C357.142 183.28 358.214 183.792 359.398 184.272L358.582 186.048ZM349.942 181.008C348.822 180.176 347.67 179.232 346.486 178.176C345.302 177.088 344.166 175.984 343.078 174.864C342.022 173.744 341.11 172.704 340.342 171.744C338.902 172.48 337.622 173.36 336.502 174.384C335.414 175.376 334.87 176.688 334.87 178.32C334.87 179.728 335.238 180.896 335.974 181.824C336.71 182.72 337.67 183.392 338.854 183.84C340.038 184.288 341.302 184.496 342.646 184.464C344.022 184.4 345.35 184.08 346.63 183.504C347.91 182.928 349.014 182.096 349.942 181.008ZM340.966 170.112C341.03 170.08 341.286 169.968 341.734 169.776C342.182 169.584 342.71 169.312 343.318 168.96C343.926 168.608 344.534 168.176 345.142 167.664C345.782 167.152 346.31 166.608 346.726 166.032C347.142 165.424 347.35 164.768 347.35 164.064C347.35 163.072 347.046 162.304 346.438 161.76C345.862 161.184 345.126 160.8 344.23 160.608C343.366 160.416 342.486 160.432 341.59 160.656C340.694 160.88 339.942 161.312 339.334 161.952C338.726 162.56 338.422 163.376 338.422 164.4C338.422 165.168 338.646 166.048 339.094 167.04C339.542 168.032 340.166 169.056 340.966 170.112ZM390.933 186H388.773V158.976H390.933V186ZM390.549 158.976H398.757C401.701 158.976 403.925 159.68 405.429 161.088C406.933 162.464 407.685 164.56 407.685 167.376C407.685 170 406.901 172.032 405.333 173.472C403.797 174.88 401.605 175.584 398.757 175.584H390.501V173.712H398.565C400.869 173.712 402.629 173.184 403.845 172.128C405.061 171.072 405.669 169.472 405.669 167.328C405.669 165.152 405.077 163.536 403.893 162.48C402.709 161.424 400.933 160.896 398.565 160.896H390.549V158.976ZM424.311 186.432C422.519 186.432 421.031 185.984 419.847 185.088C418.663 184.192 417.783 182.992 417.207 181.488C416.631 179.952 416.343 178.256 416.343 176.4C416.343 174.448 416.631 172.72 417.207 171.216C417.815 169.712 418.711 168.528 419.895 167.664C421.111 166.768 422.583 166.32 424.311 166.32C425.271 166.32 426.119 166.448 426.855 166.704C427.591 166.96 428.247 167.296 428.823 167.712C429.399 168.128 429.879 168.608 430.263 169.152C430.679 169.664 430.999 170.224 431.223 170.832H431.271V166.512H433.527V186H431.703L431.319 181.968H431.223C430.967 182.544 430.631 183.104 430.215 183.648C429.831 184.16 429.351 184.64 428.775 185.088C428.199 185.504 427.543 185.824 426.807 186.048C426.071 186.304 425.239 186.432 424.311 186.432ZM425.127 184.416C426.503 184.416 427.639 184.096 428.535 183.456C429.463 182.816 430.151 181.904 430.599 180.72C431.047 179.504 431.271 178.08 431.271 176.448C431.271 174.656 431.031 173.184 430.551 172.032C430.071 170.848 429.367 169.952 428.439 169.344C427.543 168.736 426.439 168.432 425.127 168.432C423.623 168.432 422.375 168.784 421.383 169.488C420.423 170.192 419.703 171.136 419.223 172.32C418.775 173.504 418.551 174.864 418.551 176.4C418.551 177.968 418.791 179.36 419.271 180.576C419.751 181.792 420.471 182.736 421.431 183.408C422.423 184.08 423.655 184.416 425.127 184.416ZM448.075 186C447.083 186 446.427 185.712 446.107 185.136C445.819 184.56 445.675 183.872 445.675 183.072V167.904H447.787V184.128H452.347V186H448.075ZM442.459 168.288V166.512C443.323 166.512 443.979 166.48 444.427 166.416C444.875 166.352 445.195 166.176 445.387 165.888C445.579 165.568 445.691 165.072 445.723 164.4C445.787 163.696 445.819 162.72 445.819 161.472H447.787V166.512H452.347V168.288H442.459ZM463.901 186V166.512H466.109V186H463.901ZM465.053 163.392C464.413 163.392 463.965 163.232 463.709 162.912C463.485 162.56 463.373 162.16 463.373 161.712C463.373 161.264 463.485 160.88 463.709 160.56C463.965 160.24 464.413 160.08 465.053 160.08C465.725 160.08 466.157 160.24 466.349 160.56C466.573 160.88 466.685 161.264 466.685 161.712C466.685 162.16 466.573 162.56 466.349 162.912C466.157 163.232 465.725 163.392 465.053 163.392ZM485.901 186.48C483.885 186.48 482.189 186.064 480.813 185.232C479.469 184.368 478.461 183.184 477.789 181.68C477.117 180.176 476.781 178.464 476.781 176.544C476.781 174.592 477.117 172.864 477.789 171.36C478.461 169.824 479.469 168.64 480.813 167.808C482.189 166.944 483.885 166.512 485.901 166.512C488.845 166.512 491.085 167.44 492.621 169.296C494.189 171.12 494.973 173.536 494.973 176.544C494.973 178.4 494.653 180.096 494.013 181.632C493.373 183.136 492.381 184.32 491.037 185.184C489.693 186.048 487.981 186.48 485.901 186.48ZM485.901 184.512C487.693 184.512 489.085 184.112 490.077 183.312C491.069 182.512 491.757 181.504 492.141 180.288C492.557 179.04 492.765 177.776 492.765 176.496C492.765 175.184 492.557 173.92 492.141 172.704C491.757 171.456 491.069 170.432 490.077 169.632C489.085 168.832 487.693 168.432 485.901 168.432C484.141 168.432 482.749 168.832 481.725 169.632C480.701 170.432 479.981 171.456 479.565 172.704C479.181 173.92 478.989 175.184 478.989 176.496C478.989 177.776 479.181 179.04 479.565 180.288C479.981 181.504 480.701 182.512 481.725 183.312C482.749 184.112 484.141 184.512 485.901 184.512ZM513.366 186.48C512.054 186.48 510.934 186.304 510.006 185.952C509.078 185.568 508.31 185.088 507.702 184.512C507.094 183.936 506.614 183.344 506.262 182.736C505.91 182.128 505.654 181.568 505.494 181.056C505.366 180.544 505.302 180.16 505.302 179.904H507.462C507.462 179.936 507.494 180.208 507.558 180.72C507.654 181.2 507.878 181.76 508.23 182.4C508.614 183.04 509.206 183.6 510.006 184.08C510.806 184.528 511.926 184.752 513.366 184.752C514.422 184.752 515.382 184.64 516.246 184.416C517.11 184.16 517.798 183.776 518.31 183.264C518.822 182.72 519.078 182.016 519.078 181.152C519.078 180.128 518.742 179.344 518.07 178.8C517.43 178.224 516.598 177.808 515.574 177.552C514.55 177.264 513.478 177.008 512.358 176.784C511.238 176.528 510.166 176.208 509.142 175.824C508.15 175.44 507.334 174.88 506.694 174.144C506.086 173.408 505.782 172.4 505.782 171.12C505.814 169.584 506.534 168.352 507.942 167.424C509.35 166.464 511.158 165.984 513.366 165.984C514.198 165.984 515.078 166.08 516.006 166.272C516.934 166.464 517.782 166.8 518.55 167.28C519.35 167.76 519.99 168.416 520.47 169.248C520.982 170.08 521.19 171.168 521.094 172.512H518.982C519.014 171.52 518.838 170.72 518.454 170.112C518.102 169.504 517.606 169.04 516.966 168.72C516.358 168.368 515.718 168.144 515.046 168.048C514.374 167.952 513.766 167.904 513.222 167.904C511.718 167.904 510.438 168.176 509.382 168.72C508.358 169.264 507.846 170.096 507.846 171.216C507.846 172.144 508.166 172.864 508.806 173.376C509.446 173.888 510.278 174.288 511.302 174.576C512.326 174.832 513.398 175.072 514.518 175.296C515.638 175.52 516.71 175.84 517.734 176.256C518.758 176.672 519.59 177.264 520.23 178.032C520.87 178.8 521.19 179.872 521.19 181.248C521.19 182.496 520.838 183.504 520.134 184.272C519.462 185.04 518.534 185.6 517.35 185.952C516.166 186.304 514.838 186.48 513.366 186.48Z" fill="black"/>
<path d="M53.728 186H48.784V158.976H53.728V186ZM66.544 158.976H71.44V186H66.544V158.976ZM69.472 174.144H51.04V170.352H69.472V174.144ZM88.5708 186H83.6748V158.976H88.5708V186ZM87.8508 158.976H94.5228C97.5308 158.976 99.8668 159.728 101.531 161.232C103.195 162.736 104.027 165.008 104.027 168.048C104.027 170.704 103.163 172.784 101.435 174.288C99.7388 175.792 97.4348 176.544 94.5228 176.544H87.8508V172.944H93.8508C95.5788 172.944 96.9708 172.528 98.0268 171.696C99.0828 170.864 99.6108 169.616 99.6108 167.952C99.6108 166.256 99.0828 165.008 98.0268 164.208C97.0028 163.376 95.6108 162.96 93.8508 162.96H87.8508V158.976ZM125.485 186.528C122.861 186.528 120.557 186 118.573 184.944C116.621 183.888 115.117 182.32 114.061 180.24C113.005 178.16 112.509 175.632 112.573 172.656C112.637 169.616 113.245 167.04 114.397 164.928C115.549 162.816 117.149 161.216 119.197 160.128C121.277 159.04 123.645 158.496 126.301 158.496C129.981 158.496 132.829 159.296 134.845 160.896C136.893 162.464 138.237 164.784 138.877 167.856L134.173 168.528C133.853 167.184 133.293 166.112 132.493 165.312C131.725 164.512 130.797 163.952 129.709 163.632C128.621 163.28 127.485 163.104 126.301 163.104C123.229 163.104 120.957 163.952 119.485 165.648C118.045 167.312 117.341 169.52 117.373 172.272C117.373 175.344 118.189 177.712 119.821 179.376C121.485 181.008 123.821 181.824 126.829 181.824C128.045 181.824 129.197 181.632 130.285 181.248C131.405 180.832 132.365 180.224 133.165 179.424C133.965 178.592 134.509 177.536 134.797 176.256H128.845V172.656H139.405V186H136.093L134.989 181.296H134.893C134.669 181.904 134.301 182.512 133.789 183.12C133.277 183.728 132.637 184.288 131.869 184.8C131.101 185.312 130.189 185.728 129.133 186.048C128.077 186.368 126.861 186.528 125.485 186.528Z" fill="#FF5588"/>
<defs>
<filter id="filter0_n_15_6" x="0" y="0" width="551.462" height="135.19" filterUnits="userSpaceOnUse" color-interpolation-filters="sRGB">
<feFlood flood-opacity="0" result="BackgroundImageFix"/>
<feBlend mode="normal" in="SourceGraphic" in2="BackgroundImageFix" result="shape"/>
<feTurbulence type="fractalNoise" baseFrequency="5 5" stitchTiles="stitch" numOctaves="3" result="noise" seed="3850" />
<feColorMatrix in="noise" type="luminanceToAlpha" result="alphaNoise" />
<feComponentTransfer in="alphaNoise" result="coloredNoise1">
<feFuncA type="discrete" tableValues="0 0 0 0 0 0 0 0 0 0 0 0 1 1 1 1 1 1 1 1 1 1 1 1 1 1 1 1 1 1 1 1 1 1 1 1 1 1 0 0 0 0 0 0 0 0 0 0 0 0 0 0 0 0 0 0 0 0 0 0 0 0 0 0 0 0 0 0 0 0 0 0 0 0 0 0 0 0 0 0 0 0 0 0 0 0 0 0 0 0 0 0 0 0 0 0 0 0 0 0 "/>
</feComponentTransfer>
<feComposite operator="in" in2="shape" in="coloredNoise1" result="noise1Clipped" />
<feFlood flood-color="rgba(0, 0, 0, 0.25)" result="color1Flood" />
<feComposite operator="in" in2="noise1Clipped" in="color1Flood" result="color1" />
<feMerge result="effect1_noise_15_6">
<feMergeNode in="shape" />
<feMergeNode in="color1" />
</feMerge>
</filter>
<linearGradient id="paint0_linear_15_6" x1="0.000246476" y1="92.6009" x2="551.999" y2="111.429" gradientUnits="userSpaceOnUse">
<stop stop-color="#529DFF"/>
<stop offset="1" stop-color="#FF5588"/>
</linearGradient>
<linearGradient id="paint1_linear_15_6" x1="0.000246476" y1="92.6009" x2="551.999" y2="111.429" gradientUnits="userSpaceOnUse">
<stop stop-color="#529DFF"/>
<stop offset="1" stop-color="#FF5588"/>
</linearGradient>
</defs>
</svg>
